<svg id="Layer_1" data-name="Layer 1" xmlns="http://www.w3.org/2000/svg" viewBox="0 0 576.75 178.54"><defs><style>.cls-1{fill:#1e4384;}.cls-2{fill:#fff;}</style></defs><title>SPTBI_white_bg</title><path class="cls-1" d="M384.81,209.62,154,208.37A20.8,20.8,0,0,0,133.11,229l-.54,99.27a20.81,20.81,0,0,0,20.63,20.86l230.85,1.24a20.81,20.81,0,0,0,20.86-20.63l.54-99.27a20.81,20.81,0,0,0-20.64-20.85" transform="translate(-132.57 -208.37)"/><path class="cls-2" d="M380.37,234.43q-9.87-9.75-25.57-9.83l-49.65-.27a39.81,39.81,0,0,0-5.19.34v0l-43.75-.24q-15.64-.07-25.84,10.72t-10.28,26.5q0,2.77-.09,17.09.18,10.38-.09,17.08a28.06,28.06,0,0,1-6.21,16.37,17.8,17.8,0,0,1-14.7,7.07L154.9,319l-.08,15,44.1.24q15.47.09,25.69-10.71t10.3-26.5q0-4.62.07-13.39.06-9,.08-13.4,0-5.31,0-7.38a27.9,27.9,0,0,1,6.18-16.48,18,18,0,0,1,14.88-7l19.44.1a38.34,38.34,0,0,0-7.37,22.95l-.38,70.89,15,.08.4-72.51a21.68,21.68,0,0,1,21.87-21.58l49.78.26q9.24.06,14.77,6.55a23.56,23.56,0,0,1,5.47,16l0,7.16a25.36,25.36,0,0,1-5.87,16.37,18.49,18.49,0,0,1-15.1,7.07l-50.5-.27-.31,14.77,25.4.37,25.16.14q16.17.09,26.16-10.48t10.07-26.73l.05-10.62q.09-15.7-9.79-25.46" transform="translate(-132.57 -208.37)"/><polygon class="cls-1" points="410.68 31.39 354.5 31.39 354.5 125.42 339.4 125.42 339.4 31.39 283.22 31.39 283.22 16.3 410.68 16.3 410.68 31.39"/><path class="cls-1" d="M663.75,255.38q0,14.19-8.82,23.27,8.8,9.54,8.82,24.19a33.75,33.75,0,0,1-7.2,21.64,25.52,25.52,0,0,1-20.43,9.31l-56.42-.23.23-14.86h53.4a12.87,12.87,0,0,0,10.1-4.65,15.71,15.71,0,0,0,4.06-10.68q0-17.42-13.69-17.41H579.93V270.87h52.58q6.91,0,11-4.61a17.18,17.18,0,0,0,4-11.75,15.5,15.5,0,0,0-3.8-10.72,13.11,13.11,0,0,0-10.28-4.26H586.54a20.82,20.82,0,0,0-15.35,6.41,21.27,21.27,0,0,0-6.35,15.52v72.33H549.75V263.37A39.23,39.23,0,0,1,560.28,236a34,34,0,0,1,26.24-11.54h49.71a24.62,24.62,0,0,1,19.89,9.19,33,33,0,0,1,7.63,21.75" transform="translate(-132.57 -208.37)"/><rect class="cls-1" x="553.23" y="14.44" width="15.09" height="110.98"/><path class="cls-1" d="M134.47,384.48l2.27-2.71a7.57,7.57,0,0,0,4.76,1.76c1.11,0,1.7-.37,1.7-1v0c0-.64-.49-.95-2.5-1.43-3.12-.71-5.53-1.59-5.53-4.59v-.05c0-2.72,2.15-4.69,5.68-4.69a9.26,9.26,0,0,1,6,1.95l-2,2.87a7.17,7.17,0,0,0-4.11-1.45c-1,0-1.46.4-1.46.95v0c0,.67.5,1,2.55,1.43,3.36.73,5.46,1.82,5.46,4.57v0c0,3-2.37,4.78-5.94,4.78a10.33,10.33,0,0,1-6.88-2.43" transform="translate(-132.57 -208.37)"/><path class="cls-1" d="M154,371.88h3.92l6.25,14.78h-4.36L158.78,384H153.1l-1,2.64h-4.26Zm3.57,9L156,376.7l-1.66,4.15Z" transform="translate(-132.57 -208.37)"/><path class="cls-1" d="M165.62,372h6.95a6.53,6.53,0,0,1,4.78,1.57,4.58,4.58,0,0,1,1.3,3.42v0a4.66,4.66,0,0,1-3,4.53l3.5,5.12h-4.68l-2.95-4.45h-1.81v4.45h-4.07Zm6.78,7c1.36,0,2.18-.67,2.18-1.74v0c0-1.17-.86-1.76-2.2-1.76h-2.69V379Z" transform="translate(-132.57 -208.37)"/><path class="cls-1" d="M180.7,372h5.69c5.22,0,8.26,3,8.26,7.26v0c0,4.23-3.08,7.38-8.34,7.38H180.7Zm4.07,3.59v7.48h1.66c2.45,0,4.07-1.34,4.07-3.71v0c0-2.35-1.62-3.73-4.07-3.73Z" transform="translate(-132.57 -208.37)"/><path class="cls-1" d="M200.8,371.88h3.92L211,386.66h-4.36L205.56,384h-5.68l-1,2.64h-4.26Zm3.57,9-1.64-4.15-1.66,4.15Z" transform="translate(-132.57 -208.37)"/><path class="cls-1" d="M212.4,372h6.94a6.54,6.54,0,0,1,4.79,1.57,4.62,4.62,0,0,1,1.3,3.42v0a4.65,4.65,0,0,1-3,4.53l3.51,5.12h-4.68l-2.95-4.45h-1.81v4.45H212.4Zm6.78,7c1.36,0,2.18-.67,2.18-1.74v0c0-1.17-.86-1.76-2.21-1.76h-2.68V379Z" transform="translate(-132.57 -208.37)"/><path class="cls-1" d="M233.3,372h6.31c3.69,0,6.08,1.91,6.08,5.14v0c0,3.48-2.66,5.3-6.29,5.3h-2v4.2H233.3Zm6,7.3c1.43,0,2.33-.78,2.33-1.93v-.05c0-1.25-.9-1.9-2.35-1.9h-1.93v3.88Z" transform="translate(-132.57 -208.37)"/><path class="cls-1" d="M251,371.88h3.92l6.25,14.78h-4.36l-1-2.64H250.1l-1,2.64h-4.26Zm3.56,9L253,376.7l-1.66,4.15Z" transform="translate(-132.57 -208.37)"/><polygon class="cls-1" points="131.75 167.17 127.36 167.17 127.36 163.61 140.22 163.61 140.22 167.17 135.82 167.17 135.82 178.29 131.75 178.29 131.75 167.17"/><polygon class="cls-1" points="142.01 163.61 153.81 163.61 153.81 167.05 146.03 167.05 146.03 169.29 153.08 169.29 153.08 172.5 146.03 172.5 146.03 174.83 153.92 174.83 153.92 178.29 142.01 178.29 142.01 163.61"/><polygon class="cls-1" points="156.02 163.61 160.09 163.61 160.09 174.72 167.2 174.72 167.2 178.29 156.02 178.29 156.02 163.61"/><polygon class="cls-1" points="179.43 165.14 174.5 165.14 174.5 163.61 186.04 163.61 186.04 165.14 181.11 165.14 181.11 178.29 179.43 178.29 179.43 165.14"/><polygon class="cls-1" points="189.14 163.61 199.75 163.61 199.75 165.12 190.8 165.12 190.8 170.13 198.81 170.13 198.81 171.64 190.8 171.64 190.8 176.78 199.86 176.78 199.86 178.29 189.14 178.29 189.14 163.61"/><path class="cls-1" d="M335.12,379.36v0a7.39,7.39,0,0,1,7.42-7.59,7.67,7.67,0,0,1,5.73,2.32l-1.14,1.22a6.38,6.38,0,0,0-4.61-2,5.75,5.75,0,0,0-5.68,6v0a5.79,5.79,0,0,0,5.68,6.06,6.4,6.4,0,0,0,4.74-2.12l1.09,1.07a7.65,7.65,0,0,1-5.87,2.58,7.32,7.32,0,0,1-7.36-7.55" transform="translate(-132.57 -208.37)"/><polygon class="cls-1" points="218.68 163.61 220.34 163.61 220.34 170.13 228.81 170.13 228.81 163.61 230.47 163.61 230.47 178.29 228.81 178.29 228.81 171.68 220.34 171.68 220.34 178.29 218.68 178.29 218.68 163.61"/><polygon class="cls-1" points="234.62 163.61 236.17 163.61 245.42 175.37 245.42 163.61 247.03 163.61 247.03 178.29 245.72 178.29 236.24 166.25 236.24 178.29 234.62 178.29 234.62 163.61"/><path class="cls-1" d="M383.11,379.36v0a7.49,7.49,0,1,1,15,0v0a7.49,7.49,0,1,1-15,0m13.26,0v0a5.83,5.83,0,0,0-5.79-6.06,5.76,5.76,0,0,0-5.75,6v0a5.84,5.84,0,0,0,5.79,6.06,5.76,5.76,0,0,0,5.75-6" transform="translate(-132.57 -208.37)"/><polygon class="cls-1" points="269.02 163.61 270.68 163.61 270.68 176.76 278.94 176.76 278.94 178.29 269.02 178.29 269.02 163.61"/><path class="cls-1" d="M413.09,379.36v0a7.49,7.49,0,1,1,15,0v0a7.49,7.49,0,1,1-15,0m13.25,0v0a5.83,5.83,0,0,0-5.78-6.06,5.76,5.76,0,0,0-5.75,6v0a5.84,5.84,0,0,0,5.79,6.06,5.76,5.76,0,0,0,5.74-6" transform="translate(-132.57 -208.37)"/><path class="cls-1" d="M430.92,379.36v0a7.36,7.36,0,0,1,7.36-7.59,7.73,7.73,0,0,1,5.47,1.95l-1.07,1.25a6.25,6.25,0,0,0-4.46-1.67,5.74,5.74,0,0,0-5.58,6v0c0,3.5,2.24,6.1,5.81,6.1a6.86,6.86,0,0,0,4.23-1.47V380.3h-4.46v-1.48h6.06v5.85a9,9,0,0,1-5.9,2.24,7.19,7.19,0,0,1-7.46-7.55" transform="translate(-132.57 -208.37)"/><polygon class="cls-1" points="319.41 172.48 313.31 163.61 315.32 163.61 320.27 170.95 325.26 163.61 327.19 163.61 321.09 172.46 321.09 178.29 319.41 178.29 319.41 172.48"/><path class="cls-1" d="M468.7,372H475a5.4,5.4,0,0,1,3.84,1.3,3.28,3.28,0,0,1,.94,2.35v0a3.56,3.56,0,0,1-2.33,3.4c1.74.52,3.15,1.53,3.15,3.54v0c0,2.52-2.12,4-5.33,4H468.7Zm9.35,3.88c0-1.45-1.15-2.39-3.25-2.39h-4.47v5h4.34c2,0,3.38-.9,3.38-2.62ZM475,380h-4.64v5.18h4.93c2.23,0,3.61-1,3.61-2.62v-.05c0-1.59-1.34-2.51-3.9-2.51" transform="translate(-132.57 -208.37)"/><path class="cls-1" d="M483.61,380.51V372h1.66v8.43c0,3.17,1.7,4.95,4.49,4.95s4.42-1.64,4.42-4.85V372h1.66v8.41c0,4.28-2.45,6.5-6.12,6.5s-6.11-2.22-6.11-6.38" transform="translate(-132.57 -208.37)"/><path class="cls-1" d="M498.8,384.52l1-1.22a7,7,0,0,0,5,2.08c2,0,3.27-1.05,3.27-2.5v0c0-1.36-.73-2.14-3.81-2.79-3.38-.73-4.93-1.82-4.93-4.23v-.05c0-2.3,2-4,4.82-4a7.69,7.69,0,0,1,5.16,1.8l-1,1.28a6.47,6.47,0,0,0-4.24-1.59c-1.91,0-3.13,1.05-3.13,2.37v0c0,1.39.76,2.16,4,2.85s4.78,1.91,4.78,4.15v.05c0,2.51-2.1,4.15-5,4.15a8.6,8.6,0,0,1-6-2.35" transform="translate(-132.57 -208.37)"/><rect class="cls-1" x="380.76" y="163.61" width="1.66" height="14.68"/><polygon class="cls-1" points="386.72 163.61 388.27 163.61 397.52 175.37 397.52 163.61 399.14 163.61 399.14 178.29 397.82 178.29 388.34 166.25 388.34 178.29 386.72 178.29 386.72 163.61"/><polygon class="cls-1" points="403.3 163.61 413.91 163.61 413.91 165.12 404.95 165.12 404.95 170.13 412.96 170.13 412.96 171.64 404.95 171.64 404.95 176.78 414.01 176.78 414.01 178.29 403.3 178.29 403.3 163.61"/><path class="cls-1" d="M549,384.52l1-1.22a7,7,0,0,0,5,2.08c2,0,3.27-1.05,3.27-2.5v0c0-1.36-.74-2.14-3.82-2.79-3.38-.73-4.93-1.82-4.93-4.23v-.05c0-2.3,2-4,4.83-4a7.7,7.7,0,0,1,5.16,1.8l-1,1.28a6.45,6.45,0,0,0-4.24-1.59c-1.9,0-3.12,1.05-3.12,2.37v0c0,1.39.75,2.16,4,2.85s4.78,1.91,4.78,4.15v.05c0,2.51-2.09,4.15-5,4.15a8.58,8.58,0,0,1-6-2.35" transform="translate(-132.57 -208.37)"/><path class="cls-1" d="M562.17,384.52l1-1.22a7,7,0,0,0,5,2.08c2,0,3.27-1.05,3.27-2.5v0c0-1.36-.73-2.14-3.81-2.79-3.38-.73-4.93-1.82-4.93-4.23v-.05c0-2.3,2-4,4.82-4a7.69,7.69,0,0,1,5.16,1.8l-1,1.28a6.47,6.47,0,0,0-4.24-1.59c-1.91,0-3.12,1.05-3.12,2.37v0c0,1.39.75,2.16,4,2.85s4.78,1.91,4.78,4.15v.05c0,2.51-2.1,4.15-5,4.15a8.6,8.6,0,0,1-6-2.35" transform="translate(-132.57 -208.37)"/><rect class="cls-1" x="450.43" y="163.61" width="1.66" height="14.68"/><polygon class="cls-1" points="456.39 163.61 457.94 163.61 467.19 175.37 467.19 163.61 468.8 163.61 468.8 178.29 467.48 178.29 458 166.25 458 178.29 456.39 178.29 456.39 163.61"/><path class="cls-1" d="M604.88,379.36v0a7.39,7.39,0,0,1,7.42-7.59,7.65,7.65,0,0,1,5.73,2.32l-1.13,1.22a6.4,6.4,0,0,0-4.62-2,5.75,5.75,0,0,0-5.68,6v0a5.79,5.79,0,0,0,5.68,6.06,6.36,6.36,0,0,0,4.74-2.12l1.09,1.07a7.65,7.65,0,0,1-5.87,2.58,7.32,7.32,0,0,1-7.36-7.55" transform="translate(-132.57 -208.37)"/><path class="cls-1" d="M620.78,380.51V372h1.65v8.43c0,3.17,1.71,4.95,4.49,4.95s4.43-1.64,4.43-4.85V372H633v8.41c0,4.28-2.46,6.5-6.13,6.5s-6.1-2.22-6.1-6.38" transform="translate(-132.57 -208.37)"/><path class="cls-1" d="M636.93,372h6.25a5.39,5.39,0,0,1,3.84,1.3,3.24,3.24,0,0,1,.94,2.35v0a3.55,3.55,0,0,1-2.33,3.4c1.75.52,3.15,1.53,3.15,3.54v0c0,2.52-2.12,4-5.32,4h-6.53Zm9.36,3.88c0-1.45-1.16-2.39-3.26-2.39h-4.46v5h4.34c2,0,3.38-.9,3.38-2.62ZM643.2,380h-4.63v5.18h4.93c2.22,0,3.6-1,3.6-2.62v-.05c0-1.59-1.34-2.51-3.9-2.51" transform="translate(-132.57 -208.37)"/><path class="cls-1" d="M657.51,371.87h1.55l6.69,14.79H664l-1.72-3.88h-8l-1.74,3.88h-1.7Zm4.09,9.4-3.34-7.47-3.35,7.47Z" transform="translate(-132.57 -208.37)"/><polygon class="cls-1" points="538.07 165.14 533.14 165.14 533.14 163.61 544.67 163.61 544.67 165.14 539.75 165.14 539.75 178.29 538.07 178.29 538.07 165.14"/><path class="cls-1" d="M678.7,379.36v0a7.49,7.49,0,1,1,15,0v0a7.49,7.49,0,1,1-15,0m13.25,0v0a5.83,5.83,0,0,0-5.79-6.06,5.76,5.76,0,0,0-5.74,6v0a5.84,5.84,0,0,0,5.79,6.06,5.76,5.76,0,0,0,5.74-6" transform="translate(-132.57 -208.37)"/><path class="cls-1" d="M697.18,372h6.31a5.75,5.75,0,0,1,4.17,1.47,4,4,0,0,1,1.14,2.89v0c0,2.44-1.68,3.86-4,4.28l4.51,6h-2L703,381h-4.2v5.71h-1.65Zm6.16,7.48c2.2,0,3.78-1.13,3.78-3v-.05c0-1.8-1.39-2.89-3.76-2.89h-4.53v5.95Z" transform="translate(-132.57 -208.37)"/></svg>